<svg width="144" height="49" viewBox="0 0 144 49" fill="none" xmlns="http://www.w3.org/2000/svg">
<path d="M17.3902 12.5049V29.0637C17.3902 31.6272 16.6628 33.6018 15.2078 34.9875C13.7759 36.3731 11.836 37.066 9.38795 37.066C6.82445 37.066 4.76903 36.3385 3.2217 34.8835C1.67436 33.4286 0.900689 31.3616 0.900689 28.6826H6.78981C6.78981 29.6988 6.99766 30.4725 7.41337 31.0036C7.82907 31.5117 8.42953 31.7658 9.21474 31.7658C9.93068 31.7658 10.4849 31.5348 10.8776 31.0729C11.2702 30.611 11.4665 29.9413 11.4665 29.0637V12.5049H17.3902ZM31.3206 37.1006C29.4268 37.1006 27.7178 36.6965 26.1936 35.8882C24.6925 35.0798 23.5031 33.9251 22.6255 32.424C21.771 30.9228 21.3437 29.1676 21.3437 27.1584C21.3437 25.1723 21.7825 23.4286 22.6601 21.9275C23.5377 20.4032 24.7386 19.237 26.2629 18.4286C27.7871 17.6203 29.4961 17.2162 31.3899 17.2162C33.2836 17.2162 34.9926 17.6203 36.5169 18.4286C38.0411 19.237 39.242 20.4032 40.1196 21.9275C40.9972 23.4286 41.436 25.1723 41.436 27.1584C41.436 29.1445 40.9857 30.8997 40.085 32.424C39.2074 33.9251 37.9949 35.0798 36.4476 35.8882C34.9234 36.6965 33.2144 37.1006 31.3206 37.1006ZM31.3206 31.9736C32.4522 31.9736 33.4107 31.5579 34.1959 30.7265C35.0042 29.8951 35.4083 28.7057 35.4083 27.1584C35.4083 25.6111 35.0157 24.4217 34.2305 23.5903C33.4684 22.7589 32.5215 22.3432 31.3899 22.3432C30.2352 22.3432 29.2767 22.7589 28.5146 23.5903C27.7525 24.3986 27.3714 25.588 27.3714 27.1584C27.3714 28.7057 27.7409 29.8951 28.48 30.7265C29.2421 31.5579 30.189 31.9736 31.3206 31.9736Z" fill="#F2994A"/>
<path d="M69.0889 41.1376C79.5118 41.1376 87.9608 32.6885 87.9608 22.2657C87.9608 11.8429 79.5118 3.3938 69.0889 3.3938C58.6661 3.3938 50.2171 11.8429 50.2171 22.2657C50.2171 32.6885 58.6661 41.1376 69.0889 41.1376Z" stroke="white" stroke-width="4.44044" stroke-linejoin="round"/>
<path d="M82.6567 35.8334L92.076 45.2527M75.3688 14.8757C74.545 14.0498 73.5661 13.3948 72.4884 12.9485C71.4107 12.5021 70.2554 12.2731 69.0889 12.2747C66.6356 12.2747 64.4154 13.2682 62.809 14.8757H75.3688Z" stroke="white" stroke-width="4.44044" stroke-linecap="round" stroke-linejoin="round"/>
<path d="M107.365 20.23C107.919 19.3293 108.716 18.6019 109.755 18.0476C110.794 17.4933 111.984 17.2162 113.323 17.2162C114.917 17.2162 116.36 17.6203 117.653 18.4286C118.947 19.237 119.963 20.3917 120.702 21.8928C121.464 23.394 121.845 25.1376 121.845 27.1238C121.845 29.1099 121.464 30.8651 120.702 32.3893C119.963 33.8905 118.947 35.0567 117.653 35.8882C116.36 36.6965 114.917 37.1006 113.323 37.1006C111.96 37.1006 110.771 36.835 109.755 36.3039C108.739 35.7496 107.942 35.0221 107.365 34.1214V36.8235H101.441V11.1885H107.365V20.23ZM115.817 27.1238C115.817 25.6457 115.402 24.491 114.57 23.6596C113.762 22.8051 112.757 22.3778 111.556 22.3778C110.378 22.3778 109.374 22.8051 108.542 23.6596C107.734 24.5141 107.33 25.6803 107.33 27.1584C107.33 28.6365 107.734 29.8027 108.542 30.6572C109.374 31.5117 110.378 31.939 111.556 31.939C112.734 31.939 113.739 31.5117 114.57 30.6572C115.402 29.7796 115.817 28.6018 115.817 27.1238ZM133.163 37.1006C131.477 37.1006 129.976 36.8119 128.659 36.2346C127.343 35.6572 126.304 34.872 125.542 33.8789C124.779 32.8628 124.352 31.7311 124.26 30.484H130.114C130.184 31.1538 130.495 31.6965 131.05 32.1122C131.604 32.5279 132.285 32.7357 133.094 32.7357C133.833 32.7357 134.398 32.5972 134.791 32.32C135.207 32.0198 135.415 31.6387 135.415 31.1769C135.415 30.6226 135.126 30.2184 134.549 29.9644C133.971 29.6873 133.036 29.387 131.743 29.0637C130.357 28.7404 129.202 28.4055 128.278 28.0591C127.355 27.6896 126.558 27.1238 125.888 26.3616C125.218 25.5764 124.883 24.5256 124.883 23.2092C124.883 22.1007 125.184 21.0961 125.784 20.1954C126.408 19.2716 127.308 18.5441 128.486 18.0129C129.687 17.4818 131.107 17.2162 132.747 17.2162C135.172 17.2162 137.077 17.8166 138.463 19.0176C139.872 20.2185 140.68 21.812 140.888 23.7981H135.415C135.322 23.1284 135.022 22.5972 134.514 22.2046C134.029 21.812 133.382 21.6157 132.574 21.6157C131.881 21.6157 131.35 21.7543 130.98 22.0314C130.611 22.2854 130.426 22.6434 130.426 23.1053C130.426 23.6596 130.715 24.0753 131.292 24.3524C131.893 24.6295 132.816 24.9067 134.064 25.1838C135.495 25.5533 136.662 25.9228 137.562 26.2924C138.463 26.6388 139.248 27.2161 139.918 28.0244C140.611 28.8097 140.969 29.872 140.992 31.2115C140.992 32.3431 140.669 33.3593 140.022 34.26C139.398 35.1376 138.486 35.8304 137.285 36.3385C136.107 36.8466 134.733 37.1006 133.163 37.1006Z" fill="#F2994A"/>
</svg>
