<?xml version="1.0" encoding="UTF-8"?>
<svg id="Camada_1" data-name="Camada 1" xmlns="http://www.w3.org/2000/svg" xmlns:xlink="http://www.w3.org/1999/xlink" viewBox="0 0 1200 1200">
  <defs>
    <style>
      .cls-1 {
        fill: url(#Gradiente_sem_nome_4-2);
      }

      .cls-1, .cls-2, .cls-3 {
        stroke-width: 0px;
      }

      .cls-2 {
        fill: url(#Gradiente_sem_nome_4);
      }

      .cls-3 {
        fill: #f57c00;
      }
    </style>
    <linearGradient id="Gradiente_sem_nome_4" data-name="Gradiente sem nome 4" x1="373.16" y1="569.76" x2="551.63" y2="569.76" gradientUnits="userSpaceOnUse">
      <stop offset="0" stop-color="#f54300"/>
      <stop offset="1" stop-color="#f57c00"/>
    </linearGradient>
    <linearGradient id="Gradiente_sem_nome_4-2" data-name="Gradiente sem nome 4" x1="561.61" y1="604.62" x2="1101.12" y2="604.62" xlink:href="#Gradiente_sem_nome_4"/>
  </defs>
  <path class="cls-3" d="M543.01,899.51h-80.87c-37.8,0-72.92-19.51-92.9-51.6L48.7,332.89h81.18c37.61,0,72.55,19.41,92.42,51.34l320.7,515.27Z"/>
  <path class="cls-3" d="M802.91,899.51h-80.85c-37.8,0-72.93-19.51-92.9-51.61l-40.72-65.44-21.29-34.17c-20.82-39.42-32.62-84.37-32.62-132.09,0-39.54,8.12-77.21,22.75-111.38l118.45,190.32.09.18.18.29c2.39,4.26,4.96,8.38,7.71,12.38l118.95,191.11.26.41Z"/>
  <path class="cls-2" d="M551.63,495.73l-20.31-32.63c-10.25-16.47-28.28-26.48-47.68-26.48h-110.48l165.73,266.28c-8.67-27.98-13.14-57.27-13.14-86.71,0-39.83,7.88-78.47,23.45-114.83l2.42-5.64Z"/>
  <path class="cls-1" d="M817.82,332.89c-113.19,0-210.85,66.35-256.2,162.31l97.63,156.88c-2.63-11.54-4-23.57-4-35.89,0-89.66,72.92-162.58,162.58-162.58s162.58,72.92,162.58,162.58c0,73.21-48.65,135.3-115.33,155.57l65.07,104.58c100.58-43.48,170.99-143.59,170.99-260.15,0-156.47-126.86-283.3-283.3-283.3Z"/>
  <path class="cls-3" d="M1005.22,373.53h0c40.34,0,73.04-32.7,73.04-73.04h0c0,40.34,32.7,73.04,73.04,73.04h0c-40.34,0-73.04,32.7-73.04,73.04h0c0-40.34-32.7-73.04-73.04-73.04Z"/>
</svg>